<svg width="597" height="445" viewBox="0 0 597 445" fill="none" xmlns="http://www.w3.org/2000/svg">
<path d="M581.813 323.046C570.363 306.955 552.996 285.329 539.411 280.816C531.912 275.432 520.326 270.532 507.915 265.391L501.59 262.746C501.758 258.622 500.216 255.466 496.795 253.129C475.869 238.876 454.644 218.804 434.253 196.587C434.8 195.458 435.117 194.206 435.117 192.823C435.116 187.628 430.888 182.984 425.688 182.448C424.186 182.293 422.814 182.258 421.332 182.122C415.384 175.262 409.567 168.329 403.885 161.329C404.859 159.955 405.565 158.357 405.565 156.463C405.563 151.259 401.336 146.616 396.145 146.081C395.658 146.031 393.957 145.863 391.362 145.678C384.732 137.204 378.209 128.679 371.796 120.105C372.203 119.101 372.472 118.017 372.471 116.84C372.47 111.636 368.253 106.986 363.062 106.45C362.555 106.398 362.097 106.384 361.61 106.334C355.567 98.0753 349.576 89.7948 343.635 81.4924C343.933 80.5928 344.221 79.6675 344.221 78.6466C344.22 73.4512 339.982 68.807 334.801 68.2726L334.145 68.2214C309.913 34.4028 305.507 29.2224 298.794 28.5301C294.359 28.0726 290.243 27.895 286.235 27.8192C284.723 25.4156 283.181 23.0747 281.679 20.6392C276.993 13.0588 266.988 3.53832 246.015 1.37513C214.243 -1.90196 170.653 13.1394 145.069 23.5503C120.813 12.527 100.188 5.98657 83.949 4.31161C67.3719 2.60178 59.6563 6.2766 56.4251 8.65205C56.2263 8.77151 55.9876 8.82922 55.7987 8.9744C37.923 23.3007 26.425 52.3472 19.0438 81.5301C7.27745 111.331 6.00086 136.451 6.19267 148.112C5.46349 148.743 4.83627 149.452 4.32372 150.225C-2.54483 161.331 -1.1314 207.328 8.53684 218.279C33.3341 246.467 58.7059 265.698 85.5696 286.064C115.954 309.097 147.363 332.912 184.285 373.399C216.094 408.296 282.308 433.247 365.968 441.876C477.423 453.372 596.756 432.92 596.744 384.17C596.731 330.504 589.738 324.119 581.813 323.046ZM570.866 330.2C549.324 355.65 449.279 360.249 361.193 351.163C331.788 348.13 305.833 343.774 288.082 338.88C263.499 332.104 240.337 322.701 218.616 311.782C239.007 291.788 275.919 292.162 313.528 296.041C328.136 297.548 343.211 299.646 359.192 301.887C375.51 304.163 392.386 306.513 409.072 308.234C449.347 312.388 500.051 314.308 537.982 292.953C544.775 297.045 558.273 312.377 570.866 330.2ZM452.571 242.524C458.33 248.091 463.761 253.369 468.426 258.057C474.801 264.478 488.406 270.121 502.786 276.092C510.225 279.181 517.714 282.333 523.631 285.355C490.184 301.731 447.255 300.176 409.069 296.238C393.487 294.631 377.616 292.434 362.162 290.272C362.129 277.153 359.819 263.577 355.909 255.006C378.45 246.364 410.855 239.143 452.571 242.524ZM409.185 200.011C416.772 207.649 424.441 215.233 432.191 222.762C394.563 222.396 365.061 229.883 344.022 238.458C336.646 229.089 329.212 219.749 321.72 210.437C341.636 203.369 370.125 197.884 409.185 200.011ZM390.356 180.648C354.389 180.635 327.691 186.822 308.59 194.329C302.582 186.974 296.684 179.845 290.935 172.97C319.989 164.416 353.331 163.343 374.561 163.787C379.932 169.635 385.174 175.206 390.356 180.648ZM277.337 156.912C270.151 148.507 262.873 140.151 255.504 131.846C276.445 126.514 304.665 122.369 339.717 123.704C345.567 130.787 351.539 137.807 357.632 144.759C334.293 145.143 304.064 147.805 277.337 156.912ZM359.317 124.984C363.704 130.871 368.23 136.854 372.905 142.918C367.634 136.938 362.451 130.909 357.358 124.832C358.015 124.883 358.651 124.915 359.317 124.984ZM331.485 86.8258C335.623 92.596 339.98 98.644 344.595 105.007C343.382 104.931 342.229 104.927 341.025 104.869C336.188 98.7695 331.436 92.6282 326.771 86.4466C328.362 86.5778 329.884 86.6771 331.485 86.8258ZM240.753 115.587C233.87 108.101 226.864 100.69 219.736 93.355C241.214 87.8722 271.064 83.6401 309.797 85.3215C314.631 91.8634 319.475 98.2498 324.31 104.446C289.058 104.432 261.157 109.631 240.753 115.587ZM296.779 40.3591C300.3 43.7192 308.268 54.5033 317.19 66.8678C315.52 66.7613 313.839 66.6456 312.198 66.5587C306.003 57.8559 299.994 49.0754 294.173 40.2222C295.058 40.2887 295.864 40.2813 296.779 40.3591ZM246.018 13.3795C257.255 14.5385 264.744 18.3655 268.902 25.0763C277.445 38.8851 286.438 52.5329 295.87 66.0025C255.537 65.4733 225.13 71.1794 203.762 77.6038C182.835 57.5381 165.151 43.356 150.86 35.3612C174.822 25.4829 217.11 10.3978 246.018 13.3795ZM67.3458 17.6906C68.877 16.9429 73.6 15.24 83.942 16.3067C91.957 17.1334 104.785 19.8974 123.591 27.2875C98.3534 27.0391 84.3958 42 73.1422 54.3747C65.905 62.3061 59.1052 69.7968 52.7409 69.4203C48.8418 64.9015 55.7965 40.4498 67.3458 17.6906ZM37.9739 68.6793C38.4916 71.038 39.3672 73.1372 40.6603 74.8678C43.3262 78.3949 47.4634 80.5918 52.3162 81.0923C66.7751 82.5837 75.6924 72.7838 85.1367 62.3961C96.43 50.009 108.091 37.1988 129.69 39.4266C141.762 40.6718 162.648 55.637 190.309 82.0618C183.399 84.6588 178.079 87.1317 174.062 89.1792C172.949 88.7545 171.785 88.4679 170.611 88.3292C163.024 87.5466 156.88 93.0549 156.882 100.63C156.884 108.204 163.031 114.98 170.618 115.763C177.261 116.448 182.799 112.302 184.07 106.159C190.971 102.729 198.244 99.7802 205.825 97.3377C213.127 104.781 220.287 112.316 227.3 119.938C220.922 122.217 214.748 124.81 208.806 127.705C207.628 127.233 206.388 126.919 205.136 126.775C197.559 125.993 191.415 131.493 191.417 139.076C191.419 146.659 197.566 153.427 205.143 154.208C211.677 154.882 217.115 150.865 218.506 144.892C225.891 141.351 233.64 138.293 241.693 135.74C249.083 143.987 256.742 152.689 264.63 161.884C256.501 165.489 249.021 169.925 242.339 175.104C241.971 175.033 241.623 174.923 241.245 174.884C233.638 174.1 227.504 179.609 227.505 187.184C227.507 194.75 233.644 201.533 241.252 202.318C248.68 203.084 254.715 197.762 254.912 190.389C261.695 185.151 269.426 180.805 277.889 177.47C283.907 184.628 290.064 192.023 296.361 199.67C289.092 203.254 282.362 207.48 276.267 212.286C275.959 212.238 275.66 212.133 275.352 212.101C267.784 211.32 261.631 216.836 261.632 224.411C261.634 231.977 267.791 238.762 275.359 239.543C282.857 240.316 288.901 234.929 289.049 227.494C295.151 222.838 301.921 218.808 309.242 215.473C316.875 224.918 324.438 234.398 331.931 243.913C325.12 247.239 318.655 250.988 312.583 255.131C311.946 254.975 311.32 254.812 310.674 254.745C303.076 253.961 296.942 259.479 296.944 267.045C296.946 274.62 303.083 281.395 310.68 282.179C317.781 282.911 323.577 278.067 324.251 271.187C330.319 267.115 336.796 263.46 343.629 260.252C346.525 267.335 347.76 278.067 347.703 288.286C336.324 286.677 324.936 285.258 313.545 284.03C270.824 279.624 228.791 279.545 205.389 304.894C143.171 270.92 94.355 225.056 62.3769 191.821C63.0863 165.186 55.107 147.674 47.1178 130.886C40.4519 116.844 34.164 103.549 33.4833 84.9213C34.8243 79.4528 36.3047 73.9904 37.9739 68.6793ZM33.6445 134.066C39.7433 146.888 45.494 159.37 47.3576 175.922C44.7218 173.073 42.255 170.39 39.9872 167.916C29.9311 156.983 24.6196 151.297 20.7408 148.361C20.7862 136.499 22.1078 124.796 24.6899 113.391C27.297 120.732 30.5006 127.459 33.6445 134.066ZM365.965 429.871C286.64 421.689 224.515 398.733 195.48 366.897C157.594 325.339 124.136 299.979 94.6165 277.594C68.4192 257.742 43.6839 238.98 19.9012 211.975C15.0472 206.156 13.0602 173.15 15.921 160.7C19.3624 164.192 24.1468 169.386 28.8217 174.479C67.5639 216.644 158.297 315.367 285.121 350.324C303.807 355.47 330.836 360.028 361.196 363.16C429.334 370.188 544.983 372.524 579.709 341.642C580.954 348.588 582.18 360.94 582.185 382.652C582.194 419.044 479.131 441.544 365.965 429.871Z" fill="black"/>
</svg>
