<svg width="37" height="37" viewBox="0 0 37 37" fill="none" xmlns="http://www.w3.org/2000/svg">
<g id="emojione:ice-cream">
<path id="Vector" d="M18.5 35.8438C23.0978 35.8438 26.825 34.7566 26.825 33.4156C26.825 32.0746 23.0978 30.9875 18.5 30.9875C13.9022 30.9875 10.175 32.0746 10.175 33.4156C10.175 34.7566 13.9022 35.8438 18.5 35.8438Z" fill="#C1C9CB"/>
<path id="Vector_2" d="M21.5063 32.2016C23.5297 34.1094 13.5281 34.1094 15.5516 32.2016C18.6734 29.2531 18.5578 14.0484 18.5578 14.0484C18.5578 14.0484 18.4422 29.2531 21.5063 32.2016Z" fill="#ACAFB5"/>
<path id="Vector_3" d="M13.4125 10.4641C13.4125 10.4641 7.57343 3.81563 7.05311 3.17969C6.47499 2.48594 5.26093 1.27188 3.69999 1.27188C0.231238 1.27188 0.346863 3.58438 3.69999 3.70001C5.89686 3.81563 11.6203 11.7938 11.6203 11.7938L13.4125 10.4641Z" fill="#839391"/>
<path id="Vector_4" d="M35.8438 14.9156C35.8438 23.9344 28.0969 28.7328 18.5 28.7328C8.90312 28.7328 1.15625 23.9344 1.15625 14.9156C1.15625 8.78749 8.90312 6.53281 18.5 6.53281C28.0969 6.53281 35.8438 8.78749 35.8438 14.9156Z" fill="#DFE9EB"/>
<path id="Vector_5" d="M18.5 17.575C23.2893 17.575 27.1719 13.8995 27.1719 9.36563C27.1719 4.83171 23.2893 1.15625 18.5 1.15625C13.7107 1.15625 9.82812 4.83171 9.82812 9.36563C9.82812 13.8995 13.7107 17.575 18.5 17.575Z" fill="#FF78B5"/>
<path id="Vector_6" d="M25.6688 23.4719C30.4581 23.4719 34.3406 19.7964 34.3406 15.2625C34.3406 10.7286 30.4581 7.05313 25.6688 7.05313C20.8794 7.05313 16.9969 10.7286 16.9969 15.2625C16.9969 19.7964 20.8794 23.4719 25.6688 23.4719Z" fill="#BEDD4B"/>
<path id="Vector_7" d="M11.3312 23.4719C16.1206 23.4719 20.0031 19.7964 20.0031 15.2625C20.0031 10.7286 16.1206 7.05313 11.3312 7.05313C6.54189 7.05313 2.65936 10.7286 2.65936 15.2625C2.65936 19.7964 6.54189 23.4719 11.3312 23.4719Z" fill="#9B5C54"/>
<path id="Vector_8" d="M34.1094 10.6375V13.6437C34.1094 17.8062 27.1141 19.6562 18.5 19.6562C9.88594 19.6562 2.89062 17.8062 2.89062 13.6437V10.6375C1.79219 11.7937 1.15625 13.1812 1.15625 14.9156C1.15625 23.9344 8.90312 28.7328 18.5 28.7328C28.0969 28.7328 35.8438 23.9344 35.8438 14.9156C35.8438 13.1812 35.2078 11.7937 34.1094 10.6375Z" fill="#DFE9EB"/>
<g id="Group">
<path id="Vector_9" d="M35.15 16.1297C35.2078 16.7656 34.9187 17.3438 34.5141 17.8641C34.1094 18.3266 33.5891 18.7313 33.0687 19.0781C32.0281 19.7719 30.8719 20.2922 29.7156 20.6969C27.3453 21.5063 24.9172 21.9109 22.4312 22.1422C19.9453 22.3156 17.5172 22.3156 15.0312 21.9688C12.6031 21.6797 10.175 21.1594 7.86249 20.2922C10.2906 20.6969 12.6609 20.9859 15.0891 21.1016C17.5172 21.2172 19.8875 21.2172 22.3156 20.9859C24.6859 20.8125 27.1141 20.4078 29.4266 19.8297C30.5828 19.4828 31.7391 19.136 32.7797 18.6156C33.3 18.3266 33.8203 18.0375 34.2828 17.6328C34.6875 17.2281 35.0922 16.7656 35.15 16.1297Z" fill="white"/>
<path id="Vector_10" opacity="0.3" d="M14.3762 12.5858L15.2347 11.7273L16.0932 12.5864L15.2347 13.4443L14.3762 12.5858ZM13.5264 10.2455L14.0987 9.67319L14.6711 10.2461L14.0987 10.8185L13.5264 10.2455ZM16.3771 11.5602L16.9495 10.9879L17.5218 11.5608L16.9495 12.1331L16.3771 11.5602ZM15.5533 14.7919L16.1256 14.2196L16.698 14.7919L16.1256 15.3643L15.5533 14.7919ZM11.7619 13.7594L12.3343 13.187L12.9066 13.7594L12.3343 14.3317L11.7619 13.7594ZM16.1164 10.5577L16.4025 10.2716L16.6887 10.5583L16.402 10.8439L16.1164 10.5577ZM11.8874 8.88868L12.1736 8.60308L12.4597 8.88926L12.173 9.17543L11.8874 8.88868ZM11.6087 9.69401L11.8949 9.40841L12.1805 9.69458L11.8943 9.98076L11.6087 9.69401ZM16.6286 13.464L16.9153 13.1778L17.2009 13.4645L16.9148 13.7501L16.6286 13.464ZM12.6245 14.5838L12.9107 14.2976L13.1968 14.5844L12.9101 14.87L12.6245 14.5838ZM15.2567 16.1621L15.5435 15.8759L15.8296 16.1626L15.5429 16.4482L15.2567 16.1621ZM28.2368 12.8922L29.0953 12.0343L29.9538 12.8928L29.0947 13.7513L28.2368 12.8922ZM27.4291 10.593L28.0015 10.0206L28.5738 10.593L28.0015 11.1653L27.4291 10.593ZM24.1627 9.00141L24.7351 8.42907L25.3074 9.00199L24.7351 9.57434L24.1627 9.00141ZM26.0168 16.4118L26.5891 15.8395L27.1615 16.4118L26.5891 16.9842L26.0168 16.4118ZM30.2388 11.866L30.8112 11.2937L31.3835 11.866L30.8112 12.4384L30.2388 11.866ZM26.3024 12.4152L26.8747 11.8429L27.447 12.4152L26.8747 12.9876L26.3024 12.4152ZM29.9763 10.8647L30.2631 10.5791L30.5487 10.8653L30.2625 11.1515L29.9763 10.8647ZM27.7384 8.74819L28.0252 8.4626L28.3108 8.74877L28.0246 9.03494L27.7384 8.74819ZM30.5701 13.7704L30.8568 13.4848L31.1424 13.7709L30.8562 14.0565L30.5701 13.7704ZM27.1337 15.2509L27.4199 14.9654L27.706 15.2515L27.4193 15.5377L27.1337 15.2509ZM24.7027 10.6167L24.9889 10.3311L25.275 10.6173L24.9883 10.9034L24.7027 10.6167ZM27.9541 16.5876L28.2402 16.302L28.5264 16.5881L28.2397 16.8743L27.9541 16.5876ZM19.5632 3.63757L20.1355 3.06523L20.7078 3.63815L20.1355 4.21049L19.5632 3.63757ZM20.213 5.30951L20.7853 4.73716L21.3577 5.31008L20.7853 5.88243L20.213 5.30951ZM18.959 7.29074L19.5314 6.7184L20.1037 7.29074L19.5314 7.86308L18.959 7.29074ZM21.0773 3.24387L21.364 2.95827L21.6496 3.24444L21.3634 3.53062L21.0773 3.24387ZM22.526 4.46024L22.8122 4.17465L23.0984 4.46082L22.8116 4.74699L22.526 4.46024ZM19.2868 4.74583L19.5736 4.45966L19.8592 4.74641L19.573 5.03201L19.2868 4.74583ZM18.6954 6.19693L18.9821 5.91076L19.2677 6.19693L18.9816 6.4831L18.6954 6.19693ZM16.6269 3.05829L16.913 2.77269L17.1986 3.05944L16.9125 3.34504L16.6269 3.05829ZM18.4017 2.44085L18.6885 2.15468L18.974 2.44143L18.6879 2.72702L18.4017 2.44085Z" fill="white"/>
</g>
</g>
</svg>
